<svg xmlns="http://www.w3.org/2000/svg" viewBox="0 0 1000 570" role="img" aria-labelledby="t d" font-family="ui-sans-serif, -apple-system, Segoe UI, Roboto, Helvetica, Arial, sans-serif">
  <title id="t">RMNG architecture</title>
  <desc id="d">A native GTK viewer and a browser on the operator's machine talk to a single control-server container (the hub), which hardware-encodes clone GPU frames, serves the web UI and MCP surfaces, and orchestrates clone containers on a local Docker daemon.</desc>

  <style>
    .card{fill:#ffffff;stroke:#d0d7de}
    .zone{stroke:#d0d7de;stroke-width:1.25}
    .zoneA{fill:#eef6f1}.zoneB{fill:#eaf1fb}.zoneC{fill:#f4eefb}
    .box{fill:#ffffff;stroke:#d0d7de;stroke-width:1.25}
    .title{fill:#1f2328;font-weight:700}
    .sub{fill:#59636e}
    .zt{fill:#59636e;font-weight:700;letter-spacing:.6px}
    .h1{fill:#1f2328;font-weight:700}
    .h2{fill:#59636e}
    .pill{fill:#ffffff;stroke:#d0d7de;stroke-width:1}
    .pt{fill:#1f2328;font-weight:600}
    .fnote{fill:#59636e}
    .flow{fill:none;stroke:#6e7781;stroke-width:1.75}
    .video{fill:none;stroke:#2f6feb;stroke-width:2}
    .sock{fill:none;stroke:#1f9d57;stroke-width:2}
    .orch{fill:none;stroke:#8250df;stroke-width:1.75;stroke-dasharray:5 4}
    .mk-flow{fill:#6e7781}.mk-blue{fill:#2f6feb}.mk-green{fill:#1f9d57}.mk-purple{fill:#8250df}
    @media (prefers-color-scheme:dark){
      .card{fill:#0d1117;stroke:#30363d}
      .zone{stroke:#30363d}
      .zoneA{fill:#0f1e18}.zoneB{fill:#0f1a2b}.zoneC{fill:#1a1226}
      .box{fill:#161b22;stroke:#30363d}
      .title{fill:#e6edf3}.sub{fill:#9aa4af}.zt{fill:#9aa4af}
      .h1{fill:#e6edf3}.h2{fill:#9aa4af}
      .pill{fill:#161b22;stroke:#30363d}.pt{fill:#e6edf3}.fnote{fill:#9aa4af}
      .flow{stroke:#8b949e}.video{stroke:#4b8bff}.sock{stroke:#3fb27f}.orch{stroke:#a371f7}
      .mk-flow{fill:#8b949e}.mk-blue{fill:#4b8bff}.mk-green{fill:#3fb27f}.mk-purple{fill:#a371f7}
    }
  </style>

  <defs>
    <marker id="ah-flow" viewBox="0 0 10 10" refX="8.5" refY="5" markerWidth="7" markerHeight="7" orient="auto-start-reverse"><path d="M0,0 L10,5 L0,10 z" class="mk-flow"/></marker>
    <marker id="ah-blue" viewBox="0 0 10 10" refX="8.5" refY="5" markerWidth="7" markerHeight="7" orient="auto-start-reverse"><path d="M0,0 L10,5 L0,10 z" class="mk-blue"/></marker>
    <marker id="ah-green" viewBox="0 0 10 10" refX="8.5" refY="5" markerWidth="7" markerHeight="7" orient="auto-start-reverse"><path d="M0,0 L10,5 L0,10 z" class="mk-green"/></marker>
    <marker id="ah-purple" viewBox="0 0 10 10" refX="8.5" refY="5" markerWidth="6.5" markerHeight="6.5" orient="auto-start-reverse"><path d="M0,0 L10,5 L0,10 z" class="mk-purple"/></marker>
  </defs>

  <!-- card -->
  <rect class="card" x="1" y="1" width="998" height="568" rx="14"/>

  <!-- heading -->
  <text x="500" y="40" text-anchor="middle" font-size="25" class="title">RMNG architecture</text>
  <text x="500" y="63" text-anchor="middle" font-size="12.5" class="sub">One central encoder &amp; orchestrator · thin clones · zero-copy H.264 to a native viewer</text>

  <!-- ===================== ZONE A — operator ===================== -->
  <rect class="zone zoneA" x="28" y="92" width="252" height="428" rx="12"/>
  <text x="154" y="114" text-anchor="middle" font-size="12" class="zt">YOUR MACHINE</text>

  <!-- Browser -->
  <rect class="box" x="44" y="150" width="220" height="68" rx="9"/>
  <text x="154" y="180" text-anchor="middle" font-size="14" class="h1">Browser</text>
  <text x="154" y="200" text-anchor="middle" font-size="11" class="h2">React management UI</text>

  <!-- Viewer -->
  <rect class="box" x="44" y="250" width="220" height="104" rx="9"/>
  <text x="154" y="282" text-anchor="middle" font-size="14" class="h1">Native GTK viewer</text>
  <text x="154" y="304" text-anchor="middle" font-size="11" class="h2">zero-copy VA-API decode</text>
  <text x="154" y="322" text-anchor="middle" font-size="11" class="h2">multi-monitor · pointer-lock</text>
  <text x="154" y="340" text-anchor="middle" font-size="11" class="h2">input · clipboard · cursor</text>

  <!-- ===================== ZONE B — hub ===================== -->
  <rect class="zone zoneB" x="366" y="92" width="268" height="428" rx="12"/>
  <text x="500" y="114" text-anchor="middle" font-size="12" class="zt">CONTROL-SERVER — THE HUB</text>

  <rect class="box" x="380" y="140" width="240" height="56" rx="9"/>
  <text x="500" y="164" text-anchor="middle" font-size="13.5" class="h1">Web API + SSE  :9000</text>
  <text x="500" y="182" text-anchor="middle" font-size="10.5" class="h2">+ embedded React frontend</text>

  <rect class="box" x="380" y="208" width="240" height="56" rx="9"/>
  <text x="500" y="232" text-anchor="middle" font-size="13.5" class="h1">Media plane  :9001</text>
  <text x="500" y="250" text-anchor="middle" font-size="10.5" class="h2">dmabuf → VA-API H.264 encode</text>

  <rect class="box" x="380" y="276" width="240" height="56" rx="9"/>
  <text x="500" y="300" text-anchor="middle" font-size="13.5" class="h1">MCP surface</text>
  <text x="500" y="318" text-anchor="middle" font-size="10.5" class="h2">per-clone :9002</text>

  <rect class="box" x="380" y="344" width="240" height="56" rx="9"/>
  <text x="500" y="368" text-anchor="middle" font-size="13.5" class="h1">Docker orchestration</text>
  <text x="500" y="386" text-anchor="middle" font-size="10.5" class="h2">bollard → local daemon</text>

  <rect class="box" x="380" y="412" width="240" height="56" rx="9"/>
  <text x="500" y="436" text-anchor="middle" font-size="13.5" class="h1">Template + hot-swap</text>
  <text x="500" y="454" text-anchor="middle" font-size="10.5" class="h2">clone binaries self-update</text>

  <!-- ===================== ZONE C — docker host ===================== -->
  <rect class="zone zoneC" x="720" y="92" width="252" height="428" rx="12"/>
  <text x="846" y="114" text-anchor="middle" font-size="12" class="zt">DOCKER HOST</text>

  <!-- stacked clone cards -->
  <rect class="box" x="737" y="143" width="232" height="214" rx="10"/>
  <rect class="box" x="732" y="147" width="232" height="214" rx="10"/>
  <rect class="box" x="728" y="150" width="232" height="214" rx="10"/>
  <text x="844" y="172" text-anchor="middle" font-size="12" class="title">Clone container ×N</text>

  <rect class="box" x="740" y="184" width="208" height="44" rx="8"/>
  <text x="844" y="204" text-anchor="middle" font-size="12.5" class="h1">gnome-session</text>
  <text x="844" y="220" text-anchor="middle" font-size="10" class="h2">patched gnome-shell</text>

  <rect class="box" x="740" y="238" width="208" height="46" rx="8"/>
  <text x="844" y="258" text-anchor="middle" font-size="12.5" class="h1">clone-daemon  :9004</text>
  <text x="844" y="274" text-anchor="middle" font-size="10" class="h2">capture · input · clipboard</text>

  <rect class="box" x="740" y="300" width="208" height="46" rx="8"/>
  <text x="844" y="320" text-anchor="middle" font-size="12.5" class="h1">agent-wrapper</text>
  <text x="844" y="336" text-anchor="middle" font-size="10" class="h2">Claude Agent SDK</text>

  <!-- agent drives daemon MCP -->
  <path class="flow" d="M844 300 L844 288" marker-end="url(#ah-flow)"/>

  <!-- Docker daemon -->
  <rect class="box" x="762" y="392" width="168" height="40" rx="8"/>
  <text x="846" y="416" text-anchor="middle" font-size="12.5" class="h1">Docker daemon</text>
  <path class="orch" d="M846 392 L846 366" marker-end="url(#ah-purple)"/>
  <text x="860" y="382" font-size="9.5" class="fnote">runs</text>

  <!-- ===================== connectors ===================== -->
  <!-- browser <-> web api (9000) -->
  <path class="flow" d="M280 184 C323 184, 323 168, 366 168" marker-start="url(#ah-flow)" marker-end="url(#ah-flow)"/>
  <!-- viewer <-> media (9001) -->
  <path class="video" d="M280 300 C323 300, 323 236, 366 236" marker-start="url(#ah-blue)" marker-end="url(#ah-blue)"/>
  <!-- media <-> clone-daemon (clone socket) -->
  <path class="sock" d="M634 236 C687 236, 687 261, 728 261" marker-start="url(#ah-green)" marker-end="url(#ah-green)"/>
  <!-- orchestration <-> docker daemon -->
  <path class="orch" d="M634 372 C700 372, 700 412, 762 412" marker-start="url(#ah-purple)" marker-end="url(#ah-purple)"/>

  <!-- connector labels -->
  <g font-size="10.5">
    <rect class="pill" x="270" y="167" width="106" height="19" rx="9.5"/>
    <text x="323" y="180.5" text-anchor="middle" class="pt">HTTP + SSE</text>

    <rect class="pill" x="258" y="258" width="130" height="19" rx="9.5"/>
    <text x="323" y="271.5" text-anchor="middle" class="pt">H.264 video · input</text>

    <rect class="pill" x="612" y="223" width="150" height="19" rx="9.5"/>
    <text x="687" y="236.5" text-anchor="middle" class="pt">clone socket · SEQPACKET</text>
    <text x="687" y="278" text-anchor="middle" font-size="9.5" class="fnote">frames ← · input/clipboard →</text>

    <rect class="pill" x="632" y="382" width="122" height="19" rx="9.5"/>
    <text x="693" y="395.5" text-anchor="middle" class="pt">docker.sock · bollard</text>
  </g>

  <!-- footer -->
  <text x="500" y="548" text-anchor="middle" font-size="11" class="fnote">Only the control-server is reachable off-box — media &amp; input cross a host unix socket, not the network.</text>
</svg>
